<?xml version="1.0" encoding="UTF-8"?>
<svg id="Capa_2" data-name="Capa 2" xmlns="http://www.w3.org/2000/svg" viewBox="0 0 1919.53 419.73">
  <defs>
    <style>
      .cls-1 {
        fill: #fa4c02;
      }

      .cls-1, .cls-2 {
        stroke-width: 0px;
      }

      .cls-2 {
        fill: #efefef;
      }
    </style>
  </defs>
  <g id="Capa_1-2" data-name="Capa 1">
    <g>
      <g>
        <path class="cls-2" d="M502.11,195.57v-125.67h47.13c9.03,0,17.05,1.57,24.06,4.71,7,3.14,12.49,7.67,16.47,13.6,3.98,5.92,5.97,13.05,5.97,21.36s-1.84,15.59-5.52,21.46c-3.68,5.87-9.02,10.34-16.02,13.42-7,3.08-15.5,4.62-25.49,4.62h-23.25v46.5h-23.34ZM525.45,129.23h23.16c7.48,0,13.32-1.56,17.5-4.67,4.19-3.11,6.28-7.96,6.28-14.54s-2.14-11.54-6.42-14.86c-4.28-3.32-10.01-4.98-17.19-4.98h-23.34v39.05Z"/>
        <path class="cls-2" d="M619.08,195.57l48.2-125.67h26.03l49.19,125.67h-26.3l-10.68-28.46h-50.54l-10.32,28.46h-25.58ZM660.73,147.27h38.87l-19.75-50.99-19.12,50.99Z"/>
        <path class="cls-2" d="M781.38,195.57v-125.67h22.62l59.52,86.54v-86.54h22.71v125.67h-22.62l-59.51-87.61v87.61h-22.71Z"/>
        <path class="cls-2" d="M998.08,198.26c-9.51,0-18.33-1.66-26.44-4.98-8.11-3.32-15.16-7.95-21.14-13.87-5.98-5.93-10.62-12.87-13.92-20.83-3.29-7.96-4.94-16.57-4.94-25.85s1.65-17.98,4.94-25.94c3.29-7.96,7.93-14.9,13.92-20.83,5.98-5.93,13.03-10.53,21.14-13.82,8.11-3.29,16.92-4.94,26.44-4.94s18.22,1.68,26.3,5.03c8.08,3.35,15.11,8.02,21.1,14,5.98,5.98,10.65,12.94,14,20.87,3.35,7.93,5.03,16.47,5.03,25.63s-1.68,17.9-5.03,25.85c-3.35,7.96-8.02,14.9-14,20.83-5.98,5.92-13.02,10.55-21.1,13.87-8.08,3.32-16.84,4.98-26.3,4.98ZM998.08,176.27c5.92,0,11.44-1.03,16.56-3.1,5.12-2.06,9.57-5,13.38-8.8,3.8-3.8,6.76-8.38,8.89-13.73,2.12-5.35,3.18-11.33,3.18-17.91,0-8.8-1.85-16.46-5.56-22.98-3.71-6.52-8.74-11.58-15.08-15.17s-13.47-5.39-21.36-5.39c-5.98,0-11.52,1.02-16.61,3.05-5.09,2.03-9.53,4.97-13.33,8.8-3.8,3.83-6.76,8.41-8.89,13.73-2.13,5.33-3.19,11.31-3.19,17.95,0,8.8,1.84,16.46,5.52,22.98,3.68,6.52,8.69,11.58,15.04,15.17,6.34,3.59,13.49,5.39,21.46,5.39Z"/>
        <path class="cls-2" d="M1109.92,195.57v-125.67h48.66c8.92,0,16.67,1.51,23.25,4.53,6.58,3.02,11.67,7.35,15.26,12.97,3.59,5.63,5.39,12.33,5.39,20.11,0,6.22-1.29,11.7-3.86,16.43-2.58,4.73-6.12,8.65-10.64,11.76-4.52,3.11-9.74,5.3-15.66,6.55l36.53,53.32h-28.01l-32.5-49.19h-15.08v49.19h-23.34ZM1133.26,127.25h21.9c7.48,0,13.31-1.57,17.5-4.71,4.19-3.14,6.28-7.73,6.28-13.78s-1.92-11.07-5.75-14.36c-3.83-3.29-9.46-4.94-16.88-4.94h-23.07v37.79Z"/>
        <path class="cls-2" d="M1237.75,195.57l48.2-125.67h26.03l49.19,125.67h-26.3l-10.68-28.46h-50.54l-10.32,28.46h-25.58ZM1279.4,147.27h38.87l-19.75-50.99-19.12,50.99ZM1286.67,56.34l17.59-29.9h23.97l-19.84,29.9h-21.72Z"/>
        <path class="cls-2" d="M1400.05,195.57v-125.67h22.53l50.09,82.05-9.16.09,48.02-82.14h22.26v125.67h-22.71l.36-95.15,4.31,1.53-40.58,67.68h-16.43l-41.56-67.68,3.86-1.53.36,95.15h-21.37Z"/>
        <path class="cls-2" d="M1587.03,195.57v-125.67h23.34v125.67h-23.34Z"/>
        <path class="cls-2" d="M1721.14,198.26c-13.05,0-24.48-2.69-34.29-8.08-9.81-5.39-17.45-12.97-22.89-22.76-5.45-9.78-8.17-21.29-8.17-34.51,0-9.64,1.6-18.45,4.8-26.44,3.2-7.99,7.75-14.93,13.65-20.83,5.89-5.89,12.84-10.44,20.83-13.64,7.99-3.2,16.77-4.8,26.35-4.8s18.31,1.24,25.31,3.72c7,2.48,13.23,6,18.67,10.55l-11.94,19.12c-3.83-3.65-8.31-6.36-13.42-8.12-5.12-1.76-10.79-2.65-17.01-2.65-6.65,0-12.6.99-17.87,2.96-5.27,1.98-9.75,4.83-13.47,8.57s-6.55,8.25-8.53,13.51c-1.98,5.27-2.96,11.19-2.96,17.77,0,9.03,1.76,16.74,5.3,23.11,3.53,6.37,8.56,11.26,15.08,14.67,6.52,3.41,14.27,5.12,23.25,5.12,6.04,0,11.95-.93,17.73-2.78,5.77-1.86,11.23-4.82,16.38-8.89l10.77,19.66c-5.98,4.67-12.91,8.29-20.78,10.86-7.87,2.57-16.8,3.86-26.8,3.86Z"/>
        <path class="cls-2" d="M1796.1,195.57l48.2-125.67h26.03l49.19,125.67h-26.3l-10.68-28.46h-50.54l-10.32,28.46h-25.58ZM1837.75,147.27h38.87l-19.75-50.99-19.12,50.99Z"/>
        <path class="cls-2" d="M559.65,360.89c-13.05,0-24.48-2.69-34.29-8.08-9.81-5.39-17.45-12.97-22.89-22.76-5.45-9.78-8.17-21.29-8.17-34.51,0-9.64,1.6-18.45,4.8-26.44,3.2-7.99,7.75-14.93,13.65-20.83,5.89-5.89,12.84-10.44,20.83-13.64,7.99-3.2,16.77-4.8,26.35-4.8s18.31,1.24,25.31,3.72c7,2.48,13.23,6,18.67,10.55l-11.94,19.12c-3.83-3.65-8.31-6.36-13.42-8.12-5.12-1.76-10.79-2.65-17.01-2.65-6.65,0-12.6.99-17.87,2.96-5.27,1.98-9.75,4.83-13.47,8.57-3.71,3.74-6.55,8.25-8.53,13.51-1.98,5.27-2.96,11.19-2.96,17.77,0,9.03,1.76,16.74,5.3,23.11,3.53,6.37,8.56,11.26,15.08,14.67,6.52,3.41,14.27,5.12,23.25,5.12,6.04,0,11.95-.93,17.73-2.78,5.77-1.86,11.23-4.82,16.38-8.89l10.77,19.66c-5.98,4.67-12.91,8.29-20.78,10.86-7.87,2.57-16.8,3.86-26.8,3.86Z"/>
        <path class="cls-2" d="M704.9,360.89c-9.51,0-18.33-1.66-26.44-4.98-8.11-3.32-15.16-7.95-21.14-13.87-5.98-5.93-10.62-12.87-13.92-20.83-3.29-7.96-4.94-16.57-4.94-25.85s1.65-17.98,4.94-25.94c3.29-7.96,7.93-14.9,13.92-20.83,5.98-5.93,13.03-10.53,21.14-13.82,8.11-3.29,16.92-4.94,26.44-4.94s18.22,1.68,26.3,5.03c8.08,3.35,15.11,8.02,21.1,14,5.98,5.98,10.65,12.94,14,20.87,3.35,7.93,5.03,16.47,5.03,25.63s-1.68,17.9-5.03,25.85c-3.35,7.96-8.02,14.9-14,20.83-5.98,5.92-13.02,10.55-21.1,13.87-8.08,3.32-16.84,4.98-26.3,4.98ZM704.9,338.9c5.92,0,11.44-1.03,16.56-3.1,5.12-2.06,9.57-5,13.38-8.8,3.8-3.8,6.76-8.38,8.89-13.73,2.12-5.35,3.18-11.33,3.18-17.91,0-8.8-1.85-16.46-5.56-22.98-3.71-6.52-8.74-11.58-15.08-15.17-6.34-3.59-13.47-5.39-21.36-5.39-5.98,0-11.52,1.02-16.61,3.05-5.09,2.03-9.53,4.97-13.33,8.8-3.8,3.83-6.76,8.41-8.89,13.73-2.13,5.33-3.19,11.31-3.19,17.95,0,8.8,1.84,16.46,5.52,22.98,3.68,6.52,8.69,11.58,15.04,15.17,6.34,3.59,13.49,5.39,21.46,5.39Z"/>
        <path class="cls-2" d="M816.75,358.2v-125.67h22.62l59.52,86.54v-86.54h22.71v125.67h-22.62l-59.51-87.61v87.61h-22.71Z"/>
        <path class="cls-2" d="M1016.75,360.89c-8.98,0-17.73-1.3-26.26-3.9-8.53-2.6-15.72-6.33-21.59-11.17l11.31-17.69c2.87,2.64,6.31,4.91,10.32,6.82,4.01,1.92,8.27,3.4,12.79,4.44,4.52,1.05,9.02,1.57,13.51,1.57,7.48,0,13.55-1.39,18.22-4.17,4.67-2.78,7-6.81,7-12.08,0-4.13-1.62-7.59-4.85-10.37-3.23-2.78-9.19-5.4-17.86-7.86l-12.21-3.5c-12.27-3.47-21.14-8.12-26.62-13.96-5.48-5.83-8.21-13-8.21-21.5,0-5.56,1.13-10.65,3.41-15.26,2.27-4.61,5.49-8.59,9.65-11.94,4.16-3.35,9.08-5.92,14.77-7.72,5.68-1.79,11.88-2.69,18.58-2.69,8.8,0,16.97,1.27,24.51,3.82,7.54,2.54,13.7,6,18.49,10.37l-11.58,17.15c-2.51-2.33-5.48-4.37-8.89-6.1-3.41-1.74-7.09-3.07-11.04-4-3.95-.93-7.93-1.39-11.94-1.39-4.73,0-8.86.66-12.39,1.98-3.53,1.32-6.28,3.2-8.26,5.66-1.98,2.45-2.96,5.45-2.96,8.98,0,2.57.67,4.82,2.02,6.73,1.35,1.92,3.66,3.67,6.96,5.25,3.29,1.59,7.84,3.25,13.64,4.98l12.75,3.77c12.03,3.53,20.79,8.07,26.3,13.6,5.51,5.54,8.26,12.73,8.26,21.59,0,7.6-1.92,14.3-5.75,20.11-3.83,5.8-9.32,10.34-16.47,13.6-7.15,3.26-15.69,4.89-25.63,4.89Z"/>
        <path class="cls-2" d="M1160.73,360.89c-11.37,0-20.9-2.3-28.59-6.91-7.69-4.61-13.48-10.88-17.37-18.81-3.89-7.93-5.83-16.89-5.83-26.88v-75.76h23.34v76.03c0,10.18,2.54,17.77,7.63,22.8,5.08,5.03,12.03,7.54,20.82,7.54s15.72-2.51,20.78-7.54c5.06-5.03,7.59-12.62,7.59-22.8v-76.03h23.43v75.76c0,9.99-1.95,18.96-5.84,26.88-3.89,7.93-9.67,14.2-17.32,18.81-7.66,4.61-17.21,6.91-28.64,6.91Z"/>
        <path class="cls-2" d="M1265.04,358.2v-125.67h23.34v104.31h53.32v21.36h-76.66Z"/>
        <path class="cls-2" d="M1392.33,358.2v-104.31h-34.74v-21.36h92.91v21.36h-34.74v104.31h-23.43Z"/>
        <path class="cls-2" d="M1492.24,358.2v-125.67h23.34v125.67h-23.34Z"/>
        <path class="cls-2" d="M1568.81,358.2v-125.67h22.62l59.52,86.54v-86.54h22.71v125.67h-22.62l-59.51-87.61v87.61h-22.71Z"/>
        <path class="cls-2" d="M1789.45,360.89c-9.87,0-19.08-1.52-27.6-4.58-8.53-3.05-16-7.42-22.4-13.1-6.4-5.69-11.4-12.55-14.99-20.6-3.59-8.05-5.39-17.07-5.39-27.06s1.72-19.03,5.16-27.11c3.44-8.08,8.27-14.99,14.5-20.74,6.22-5.75,13.49-10.16,21.81-13.24,8.32-3.08,17.35-4.62,27.11-4.62,4.49,0,9.1.36,13.82,1.07,4.73.72,9.44,1.92,14.14,3.59s9.2,3.98,13.51,6.91l-9.97,18.22c-4.49-2.87-9.31-5.01-14.45-6.42-5.15-1.41-10.5-2.11-16.07-2.11-7,0-13.32,1.02-18.94,3.05-5.63,2.04-10.42,4.98-14.36,8.84-3.95,3.86-6.97,8.53-9.07,14-2.1,5.48-3.14,11.66-3.14,18.54,0,9.63,2.05,17.8,6.15,24.51,4.1,6.7,9.73,11.78,16.88,15.22,7.15,3.44,15.34,5.16,24.55,5.16,4.25,0,8.14-.4,11.67-1.21,3.53-.81,6.46-1.72,8.8-2.74v-27.65h-27.56v-19.03h48.29v60.5c-3.47,2.16-7.7,4.04-12.7,5.66-5,1.62-10.15,2.84-15.44,3.68-5.3.84-10.07,1.26-14.32,1.26Z"/>
      </g>
      <path class="cls-1" d="M209.86,0C93.96,0,0,93.96,0,209.86s93.96,209.86,209.86,209.86,209.86-93.96,209.86-209.86S325.77,0,209.86,0ZM340.64,296.36c-36.05-26.47-81.45-42.29-130.81-42.29s-94.73,15.82-130.74,42.22V123.37c2.01,1.39,4.03,2.86,6.08,4.25,1.68,1.25,3.47,2.37,5.22,3.55,34,21.81,75.15,34.49,119.44,34.49s85.41-12.68,119.44-34.49c1.75-1.18,3.5-2.3,5.22-3.48,2.09-1.39,4.14-2.86,6.15-4.32v172.99Z"/>
    </g>
  </g>
</svg>